<svg width="204" height="90" viewBox="0 0 204 90" fill="none" xmlns="http://www.w3.org/2000/svg">
<path d="M87.696 48.68L87.96 50.768H91.608C92.44 50.768 93.032 50.592 93.384 50.24C93.752 49.872 93.936 49.272 93.936 48.44V47.984C93.936 47.152 93.752 46.552 93.384 46.184C93.032 45.816 92.44 45.632 91.608 45.632H90.024C87.048 45.632 85.56 44.088 85.56 41V40.736C85.56 39.248 85.936 38.12 86.688 37.352C87.44 36.584 88.552 36.2 90.024 36.2H95.904V40.52H93.936L93.648 38.432H90.432C89.6 38.432 89 38.616 88.632 38.984C88.264 39.336 88.08 39.928 88.08 40.76V41.096C88.08 41.928 88.264 42.528 88.632 42.896C89 43.248 89.6 43.424 90.432 43.424H92.016C94.976 43.424 96.456 44.976 96.456 48.08V48.416C96.456 50.048 96.04 51.224 95.208 51.944C94.376 52.648 93.12 53 91.44 53H85.752V48.68H87.696Z" fill="#DCDDDA"/>
<path d="M100 40.4883H101.187C101.61 40.4883 101.809 40.3017 101.809 39.8662V38H103.991V40.3701H106.77V42.4416H103.991V49.2844C103.991 50.5285 104.513 51.02 105.775 51.02H107.36V53.0852H105.321C102.928 53.0852 101.666 51.8411 101.666 49.4524V42.4416H100.031L100 40.4883Z" fill="#DCDDDA"/>
<path d="M112.232 42.368V40.28H116.696C119.16 40.28 120.392 41.512 120.392 43.976V51.08L121.832 51.296V53H114.68C113.512 53 112.616 52.696 111.992 52.088C111.384 51.48 111.08 50.584 111.08 49.4V49.16C111.08 47.976 111.384 47.08 111.992 46.472C112.616 45.864 113.512 45.56 114.68 45.56H118.04V44.12C118.04 43.496 117.896 43.048 117.608 42.776C117.336 42.504 116.88 42.368 116.24 42.368H112.232ZM118.04 47.432H115.208C114.584 47.432 114.128 47.568 113.84 47.84C113.568 48.112 113.432 48.552 113.432 49.16V49.4C113.432 49.992 113.576 50.424 113.864 50.696C114.152 50.952 114.6 51.08 115.208 51.08H118.04V47.432Z" fill="#DCDDDA"/>
<path d="M125 40.4883H126.187C126.61 40.4883 126.809 40.3017 126.809 39.8662V38H128.991V40.3701H131.77V42.4416H128.991V49.2844C128.991 50.5285 129.513 51.02 130.775 51.02H132.36V53.0852H130.321C127.928 53.0852 126.666 51.8411 126.666 49.4524V42.4416H125.031L125 40.4883Z" fill="#DCDDDA"/>
<path d="M138.655 52.7089C136.256 52.7089 135 51.4648 135 49.076V43.6578C135 41.2566 136.243 40 138.655 40H141.03C143.423 40 144.66 41.2441 144.66 43.6578V47.1476H137.35V48.9081C137.35 50.1522 137.847 50.6375 139.103 50.6375H144.113V52.7089H138.655ZM137.35 45.3187H142.323V43.8009C142.323 42.5567 141.801 42.0653 140.564 42.0653H139.09C137.847 42.0653 137.337 42.5629 137.337 43.8009L137.35 45.3187Z" fill="#DCDDDA"/>
<path d="M92.5974 70.8245V68.9956H98.1922V70.8245L96.6257 71.0671V81.3499C96.6257 84.2239 95.084 85.7666 92.212 85.7666H89.9802C87.1082 85.7666 85.5666 84.2239 85.5666 81.3499V71.0671L84 70.8245V68.9956H88.0594V81.2318C88.0594 82.8678 88.6811 83.5334 90.3595 83.5334H91.8079C93.4428 83.5334 94.1329 82.8678 94.1329 81.2318V71.0671L92.5974 70.8245Z" fill="#DCDDDA"/>
<path d="M112.888 85.6234H109.115V76.8336C109.115 75.5894 108.618 75.098 107.387 75.098H104.372V83.7199L105.795 83.9376V85.6234H100.617V83.9376L102.047 83.7199V74.9363L100.617 74.7185V73.0327H107.81C110.234 73.0327 111.465 74.2769 111.465 76.6905V83.7199L112.888 83.9376V85.6234Z" fill="#DCDDDA"/>
<path d="M119.539 73.0326V83.7198L120.963 83.9375V85.6233H115.81V83.9375L117.233 83.7198V74.9361L115.81 74.7184V73.0326H119.539ZM118.352 68C118.698 68 119.03 68.1377 119.275 68.3826C119.52 68.6276 119.658 68.9599 119.658 69.3064C119.658 69.6528 119.52 69.9851 119.275 70.2301C119.03 70.4751 118.698 70.6127 118.352 70.6127C118.006 70.6127 117.674 70.4751 117.429 70.2301C117.184 69.9851 117.047 69.6528 117.047 69.3064C117.047 68.9599 117.184 68.6276 117.429 68.3826C117.674 68.1377 118.006 68 118.352 68Z" fill="#DCDDDA"/>
<path d="M122.859 73.0327H126.111L128.703 82.3202H128.889L130.978 74.9363L129.623 74.7185V73.0327H134.683V74.7185L133.303 74.9363L130.195 85.6234H127.348L124.239 74.9363L122.884 74.7185L122.859 73.0327Z" fill="#DCDDDA"/>
<path d="M141.254 85.6235C138.854 85.6235 137.599 84.3794 137.599 81.9906V76.5723C137.599 74.1774 138.842 72.9146 141.254 72.9146H143.622C146.022 72.9146 147.253 74.1587 147.253 76.5723V80.0622H139.948V81.8226C139.948 83.0668 140.446 83.5582 141.701 83.5582H146.712V85.6235H141.254ZM139.948 78.2333H144.922V76.7154C144.922 75.4713 144.399 74.9798 143.169 74.9798H141.695C140.452 74.9798 139.942 75.4837 139.942 76.7154L139.948 78.2333Z" fill="#DCDDDA"/>
<path d="M151.66 76.6905C151.66 74.2955 152.903 73.0327 155.315 73.0327H158.995V76.9953H157.261L157.025 75.1291H155.744C154.501 75.1291 153.985 75.633 153.985 76.8647V83.751L155.408 83.9688V85.6545H150.236V83.9688L151.66 83.751V76.6905Z" fill="#DCDDDA"/>
<path d="M168.942 76.6906L168.725 74.9364H166.331C165.088 74.9364 164.572 75.4589 164.572 76.6222C164.572 77.7855 165.069 78.3329 166.331 78.3329H167.612C169.962 78.3329 171.193 79.577 171.193 81.8911V82.084C171.193 84.3856 169.949 85.6236 167.612 85.6236H162.39V81.972H164.124L164.361 83.7263H167.115C168.358 83.7263 168.843 83.2037 168.843 81.972C168.843 80.7403 168.321 80.2364 167.115 80.2364H165.809C163.478 80.2364 162.247 78.9923 162.247 76.7217V76.5537C162.247 74.277 163.49 73.0391 165.809 73.0391H170.695V76.6968L168.942 76.6906Z" fill="#DCDDDA"/>
<path d="M178.042 73.0326V83.7198L179.466 83.9375V85.6233H174.294V83.9375L175.718 83.7198V74.9361L174.294 74.7184V73.0326H178.042ZM176.855 68C177.201 68 177.533 68.1377 177.778 68.3826C178.023 68.6276 178.161 68.9599 178.161 69.3064C178.161 69.6528 178.023 69.9851 177.778 70.2301C177.533 70.4751 177.201 70.6127 176.855 70.6127C176.509 70.6127 176.177 70.4751 175.932 70.2301C175.687 69.9851 175.55 69.6528 175.55 69.3064C175.55 68.9599 175.687 68.6276 175.932 68.3826C176.177 68.1377 176.509 68 176.855 68Z" fill="#DCDDDA"/>
<path d="M181.512 73.1758H182.699C183.122 73.1758 183.321 72.9892 183.321 72.5537V70.6875H185.503V73.0576H188.281V75.1291H185.503V81.9719C185.503 83.216 186.025 83.7075 187.287 83.7075H188.872V85.7727H186.833C184.44 85.7727 183.178 84.5286 183.178 82.1399V75.1291H181.543L181.512 73.1758Z" fill="#DCDDDA"/>
<path d="M202.468 86.4758C202.468 89.0636 201.442 90.1336 198.595 90.1336H194.019V88.0683H198.371C199.614 88.0683 200.105 87.5706 200.105 86.3141V84.4478H196.686C194.262 84.4478 193.031 83.2037 193.031 80.815V74.9488L191.607 74.7311V73.0453H195.337V80.647C195.337 81.8911 195.859 82.4075 197.097 82.4075H200.087V74.9426L198.682 74.7249V73.0391H203.86V74.7249L202.436 74.9426L202.468 86.4758Z" fill="#DCDDDA"/>
<path d="M89.6756 23.3243L85.5666 8.76157L84 8.52518V6.69629H87.6553L91.0991 19.5483H91.2608L94.2074 8.76157L92.6408 8.52518V6.69629H98.36V8.52518L96.7934 8.76157L92.6906 23.3243H89.6756Z" fill="#DCDDDA"/>
<path d="M109.954 19.7846C109.954 22.2044 108.711 23.4424 106.324 23.4424H103.713C101.313 23.4424 100.058 22.1982 100.058 19.7846V14.273C100.058 11.8718 101.301 10.6152 103.713 10.6152H106.324C108.717 10.6152 109.954 11.8594 109.954 14.273V19.7846ZM107.623 14.4659C107.623 13.1595 107.126 12.6805 105.87 12.6805H104.179C102.936 12.6805 102.426 13.1782 102.426 14.4161V19.5669C102.426 20.8732 102.923 21.3771 104.179 21.3771H105.889C107.132 21.3771 107.642 20.8732 107.642 19.6166L107.623 14.4659Z" fill="#DCDDDA"/>
<path d="M114.542 14.3917C114.542 11.9967 115.785 10.7339 118.197 10.7339H121.877V14.6778H120.143L119.907 12.8116H118.626C117.383 12.8116 116.867 13.3093 116.867 14.5472V21.4335L118.29 21.6512V23.3371H113.118V21.6512L114.542 21.4335V14.3917Z" fill="#DCDDDA"/>
<path d="M135.137 19.7846C135.137 22.2044 133.894 23.4424 131.506 23.4424H128.896C126.502 23.4424 125.24 22.1982 125.24 19.7846V14.273C125.24 11.8718 126.484 10.6152 128.896 10.6152H131.506C133.906 10.6152 135.137 11.8594 135.137 14.273V19.7846ZM132.812 14.4659C132.812 13.1595 132.315 12.6805 131.059 12.6805H129.349C128.106 12.6805 127.59 13.1782 127.59 14.4161V19.5669C127.59 20.8732 128.087 21.3771 129.349 21.3771H131.059C132.302 21.3771 132.812 20.8732 132.812 19.6166V14.4659Z" fill="#DCDDDA"/>
<path d="M150.628 23.3243H146.861V14.5344C146.861 13.2902 146.357 12.7988 145.126 12.7988H142.099V21.4207L143.523 21.6385V23.3243H138.369V21.6385L139.793 21.4207V12.6371L138.369 12.4193V10.7397H145.562C147.98 10.7397 149.211 11.9839 149.211 14.3975V21.4269L150.634 21.6447L150.628 23.3243Z" fill="#DCDDDA"/>
<path d="M157.441 23.3242C155.042 23.3242 153.786 22.08 153.786 19.6913V14.273C153.786 11.8718 155.029 10.6152 157.441 10.6152H159.816C162.209 10.6152 163.446 11.8594 163.446 14.273V17.7628H156.136V19.5233C156.136 20.7675 156.633 21.2527 157.889 21.2527H162.899V23.3242H157.441ZM156.136 15.9339H161.109V14.4161C161.109 13.1719 160.587 12.6805 159.35 12.6805H157.877C156.633 12.6805 156.124 13.1782 156.124 14.4161L156.136 15.9339Z" fill="#DCDDDA"/>
<path d="M169.756 21.091V21.2528H174.051L174.263 19.5234H176.022V23.3243H166.815V21.2528L173.032 12.9668V12.7988H168.997L168.78 14.5593H167.027V10.7397H175.997V12.805L169.756 21.091Z" fill="#DCDDDA"/>
<path d="M191.445 23.3244H187.672V14.5345C187.672 13.2904 187.174 12.7989 185.937 12.7989H182.922V21.4208L184.346 21.6386V23.3244H179.174V21.6386L180.597 21.4208V8.12094L179.174 7.90946V6.22363H182.904V10.7399H186.348C188.741 10.7399 190.003 11.984 190.003 14.3977V21.4271L191.426 21.6448L191.445 23.3244Z" fill="#DCDDDA"/>
<path d="M28.9251 6.00905L28.1667 5.38698C25.3444 3.15996 21.9502 2.43214 18.3634 2.43214H0V-0.0561523H18.3634C22.1927 -0.0561523 25.8231 0.653005 28.9313 2.85514C32.0396 0.653005 35.6637 -0.0561523 39.4993 -0.0561523H57.8068V2.43214H39.4993C35.9062 2.43214 32.5183 3.15996 29.696 5.38698L28.9251 6.00905Z" fill="#DCDDDA"/>
<path d="M29.13 62.3314L28.3902 61.7716C27.9268 61.4152 27.3584 61.2227 26.774 61.2241C26.0634 61.2241 25.3819 61.5066 24.8794 62.0094C24.377 62.5122 24.0947 63.1942 24.0947 63.9053C24.0947 64.6163 24.377 65.2983 24.8794 65.8011C25.3819 66.3039 26.0634 66.5864 26.774 66.5864C27.1791 66.5837 27.5784 66.4902 27.9427 66.3127V65.0685H30.2863V66.2691C30.647 66.4487 31.0436 66.5443 31.4465 66.5489C31.8494 66.5534 32.2481 66.4668 32.6128 66.2955C32.9775 66.1242 33.2987 65.8725 33.5526 65.5595C33.8064 65.2464 33.9862 64.8799 34.0786 64.4875C34.171 64.0951 34.1735 63.6868 34.0861 63.2933C33.9986 62.8997 33.8234 62.5311 33.5735 62.2149C33.3235 61.8987 33.0054 61.643 32.6429 61.4672C32.2803 61.2913 31.8828 61.1997 31.4799 61.1992C30.8973 61.1978 30.3308 61.3904 29.8698 61.7467L29.13 62.3314Z" fill="#DCDDDA"/>
<path d="M14.7644 48.1795C14.6392 47.9785 14.4752 47.8046 14.282 47.6678C14.0887 47.5311 13.8702 47.4344 13.6391 47.3833C13.5025 47.3518 13.3629 47.3351 13.2227 47.3335C12.9024 47.3374 12.5888 47.4263 12.3141 47.5911C12.0394 47.756 11.8134 47.9909 11.6592 48.2718C11.5049 48.5527 11.4279 48.8695 11.4361 49.19C11.4443 49.5104 11.5374 49.8229 11.7058 50.0955L14.0494 53.8279C14.3042 54.233 14.7092 54.5202 15.1756 54.6263C15.6419 54.7325 16.1313 54.6489 16.536 54.394C16.9408 54.1391 17.2278 53.7337 17.3339 53.2671C17.44 52.8005 17.3565 52.3107 17.1017 51.9057L14.7644 48.1795Z" fill="#DCDDDA"/>
<path d="M31.144 20.7896H27.0723V22.4256H28.4026H31.144V20.7896Z" fill="#DCDDDA"/>
<path d="M57.7695 6.0343H39.4558C35.6692 6.02319 31.974 7.19779 28.8878 9.3935C25.8029 7.19552 22.1069 6.02068 18.3199 6.0343H0V48.1486C0 55.2775 4.07795 63.4142 10.9161 69.9211C18.5809 77.2118 28.061 80.7078 28.4589 80.8571L28.8754 81.0064L29.2919 80.8571C35.771 78.337 41.7227 74.628 46.841 69.9211C53.6791 63.4204 57.757 55.2837 57.757 48.1486L57.7695 6.0343ZM48.6748 51.346L46.3312 55.0785C45.673 55.9425 44.7159 56.5292 43.6477 56.7233C42.5794 56.9173 41.4773 56.7048 40.5577 56.1273C39.638 55.5499 38.9672 54.6493 38.6771 53.6024C38.387 52.5555 38.4984 51.4378 38.9896 50.4689L39.5429 49.598L30.2928 43.7941V57.1749H31.8282V58.7798C33.1235 58.8702 34.3363 59.4489 35.2218 60.399C36.1074 61.3492 36.5999 62.6002 36.5999 63.8994C36.5999 65.1987 36.1074 66.4497 35.2218 67.3999C34.3363 68.35 33.1235 68.9287 31.8282 69.0191V69.9771H26.4324V69.0191C25.1371 68.9287 23.9243 68.35 23.0387 67.3999C22.1532 66.4497 21.6607 65.1987 21.6607 63.8994C21.6607 62.6002 22.1532 61.3492 23.0387 60.399C23.9243 59.4489 25.1371 58.8702 26.4324 58.7798V57.1749H27.9429V43.8936L18.7053 49.6913L19.2523 50.5684C19.6561 51.2246 19.8787 51.9762 19.8973 52.7466C19.9159 53.517 19.7298 54.2785 19.3581 54.9534C18.9865 55.6283 18.4425 56.1924 17.7817 56.5882C17.1209 56.9839 16.3671 57.1971 15.5971 57.2059C15.2665 57.2061 14.937 57.1685 14.6149 57.094C14.0598 56.9697 13.5349 56.7363 13.0707 56.4074C12.6065 56.0785 12.2122 55.6606 11.9107 55.178L9.56713 51.4456C9.07599 50.4766 8.96452 49.359 9.25464 48.3121C9.54476 47.2651 10.2155 46.3645 11.1351 45.7871C12.0548 45.2097 13.157 44.9972 14.2252 45.1912C15.2935 45.3853 16.2506 45.972 16.9087 46.836L17.4558 47.7069L26.9918 41.7288L17.605 35.844L15.5474 39.1285L13.2783 37.704L15.3359 34.4194L13.8875 33.5112L11.8423 36.7709L9.57335 35.3463L11.6185 32.0867L10.1763 31.1847L11.4196 29.1878L27.9492 39.5578V29.6046H26.4385V27.1163H27.9492V24.8457H24.6296V18.3389H27.9492V17.0948H30.2928V18.3389H33.6248V24.8831H30.3114V27.1536H31.8469V29.6419H30.3114V39.676L46.841 29.306L48.0843 31.2966L46.6793 32.18L48.681 35.3712L46.412 36.7958L44.4103 33.6045L43.0241 34.4754L44.9823 37.5858L42.7132 39.0166L40.755 35.9062L31.4304 41.7599L40.811 47.6447L41.358 46.7738C42.0162 45.9097 42.9734 45.3231 44.0416 45.129C45.1098 44.9349 46.2119 45.1475 47.1316 45.7249C48.0513 46.3023 48.722 47.2029 49.0122 48.2498C49.3023 49.2968 49.1908 50.4144 48.6997 51.3834L48.6748 51.346Z" fill="#DCDDDA"/>
<path d="M45.9643 47.4891C45.5584 47.2363 45.0689 47.1546 44.603 47.2619C44.1371 47.3691 43.7325 47.6566 43.4777 48.0614L41.1341 51.7939C40.8831 52.2005 40.8024 52.6897 40.9095 53.1555C41.0165 53.6213 41.3027 54.0261 41.706 54.2821C42.1112 54.5355 42.6001 54.6182 43.066 54.5121C43.5318 54.4061 43.9369 54.1199 44.1926 53.7161L46.53 49.9836C46.7852 49.5777 46.8689 49.087 46.7628 48.6193C46.6568 48.1516 46.3696 47.7451 45.9643 47.4891Z" fill="#DCDDDA"/>
</svg>
