<svg  class="svg" width="36" height="36" viewBox="0 0 36 36" fill="none" xmlns="http://www.w3.org/2000/svg">
  <path d="M18.1474 25.7143C21.6813 25.7143 20.4213 23.5477 20.694 22.9247C20.69 22.4595 20.6859 22.012 20.7022 21.7399C20.9261 21.801 21.4544 22.0603 22.5455 23.0874C24.23 24.7335 24.6606 25.7143 26.0214 25.7143H28.5264C29.3203 25.7143 29.7335 25.3959 29.9401 25.1288C30.1396 24.8705 30.3351 24.4171 30.1213 23.7113C29.5625 22.012 26.3034 19.0775 26.1008 18.768C26.1314 18.7108 26.1802 18.6349 26.2057 18.5955H26.2036C26.8469 17.7724 29.302 14.21 29.6633 12.7847C29.6643 12.7827 29.6653 12.7798 29.6653 12.7768C29.8608 12.1262 29.6816 11.7043 29.4964 11.4658C29.2175 11.109 28.7737 10.9286 28.1742 10.9286H25.6693C24.8306 10.9286 24.1944 11.3377 23.8728 12.0838C23.3343 13.4096 21.8218 16.1361 20.6879 17.1011C20.6533 15.7339 20.6767 14.6901 20.6951 13.9143C20.7317 12.4012 20.8498 10.9286 19.2283 10.9286H15.2913C14.2755 10.9286 13.3035 12.003 14.3559 13.2785C15.276 14.3963 14.6867 15.0193 14.8852 18.1204C14.1116 17.317 12.7355 15.1474 11.7624 12.3746C11.4897 11.6245 11.0764 10.9296 9.91301 10.9296H7.40809C6.39228 10.9296 5.78564 11.4658 5.78564 12.3638C5.78564 14.3806 10.3955 25.7143 18.1474 25.7143V25.7143ZM9.91301 12.4081C10.1339 12.4081 10.1563 12.4081 10.3201 12.8586C11.3166 15.7004 13.5518 19.9055 15.1844 19.9055C16.4109 19.9055 16.4109 18.6881 16.4109 18.2298L16.4099 14.5807C16.3427 13.3732 15.8888 12.7719 15.5906 12.4072L19.1612 12.4111C19.1632 12.4279 19.1408 16.4476 19.1713 17.4215C19.1713 18.8044 20.3052 19.597 22.0753 17.8621C23.943 15.8207 25.2346 12.7689 25.2866 12.6447C25.3629 12.4673 25.4291 12.4072 25.6693 12.4072H28.1742H28.1844C28.1833 12.4101 28.1833 12.4131 28.1823 12.416C27.9533 13.451 25.6927 16.7492 24.9364 17.7734C24.9242 17.7892 24.913 17.8059 24.9018 17.8227C24.569 18.349 24.2982 18.9306 24.9476 19.7488H24.9486C25.0077 19.8178 25.1614 19.9794 25.3853 20.2042C26.0815 20.9001 28.4694 23.2796 28.6811 24.2259C28.5406 24.2476 28.3879 24.2318 26.0214 24.2367C25.5176 24.2367 25.1237 23.5073 23.6203 22.0386C22.2686 20.765 21.3913 20.2446 20.5922 20.2446C19.0411 20.2446 19.154 21.4639 19.1683 22.9385C19.1734 24.5374 19.1632 24.0317 19.1744 24.1322C19.0838 24.1667 18.8243 24.2357 18.1474 24.2357C11.6892 24.2357 7.48341 14.3086 7.32157 12.4111C7.37756 12.4062 8.14806 12.4091 9.91301 12.4081V12.4081Z" fill="#FEFEFE"/>
  <rect class="svg" x="1" y="1" width="34" height="34" rx="7" stroke="#FEFEFE" stroke-width="2"/>
</svg>
