<svg width="108" height="18" viewBox="0 0 108 18" fill="none" xmlns="http://www.w3.org/2000/svg">
<path d="M5.67563 17.3243L1.56656 2.76157L0 2.52518V0.696289H3.65528L7.09914 13.5483H7.26078L10.2074 2.76157L8.64081 2.52518V0.696289H14.36V2.52518L12.7934 2.76157L8.69059 17.3243H5.67563Z" fill="#DCDDDA"/>
<path d="M25.9542 13.7846C25.9542 16.2044 24.7109 17.4424 22.3238 17.4424H19.7129C17.3133 17.4424 16.0576 16.1982 16.0576 13.7846V8.27302C16.0576 5.87182 17.3009 4.61523 19.7129 4.61523H22.3238C24.7171 4.61523 25.9542 5.85938 25.9542 8.27302V13.7846ZM23.6231 8.46586C23.6231 7.15951 23.1257 6.68052 21.87 6.68052H20.1791C18.9358 6.68052 18.4261 7.17816 18.4261 8.41609V13.5669C18.4261 14.8732 18.9234 15.3771 20.1791 15.3771H21.8887C23.1319 15.3771 23.6417 14.8732 23.6417 13.6166L23.6231 8.46586Z" fill="#DCDDDA"/>
<path d="M30.5418 8.39167C30.5418 5.9967 31.7851 4.73389 34.197 4.73389H37.8771V8.67784H36.1428L35.9066 6.81162H34.6259C33.3826 6.81162 32.8667 7.30927 32.8667 8.54719V15.4335L34.2902 15.6512V17.3371H29.1182V15.6512L30.5418 15.4335V8.39167Z" fill="#DCDDDA"/>
<path d="M51.1369 13.7846C51.1369 16.2044 49.8935 17.4424 47.5064 17.4424H44.8955C42.5022 17.4424 41.2402 16.1982 41.2402 13.7846V8.27302C41.2402 5.87182 42.4835 4.61523 44.8955 4.61523H47.5064C49.9059 4.61523 51.1369 5.85938 51.1369 8.27302V13.7846ZM48.8119 8.46586C48.8119 7.15951 48.3146 6.68052 47.0588 6.68052H45.3493C44.106 6.68052 43.5901 7.17816 43.5901 8.41609V13.5669C43.5901 14.8732 44.0874 15.3771 45.3493 15.3771H47.0588C48.3021 15.3771 48.8119 14.8732 48.8119 13.6166V8.46586Z" fill="#DCDDDA"/>
<path d="M66.628 17.3243H62.8608V8.53437C62.8608 7.29023 62.3573 6.7988 61.1264 6.7988H58.099V15.4207L59.5226 15.6385V17.3243H54.3691V15.6385L55.7927 15.4207V6.63706L54.3691 6.41935V4.73975H61.5615C63.9797 4.73975 65.2106 5.98389 65.2106 8.39753V15.4269L66.6342 15.6447L66.628 17.3243Z" fill="#DCDDDA"/>
<path d="M73.4414 17.3242C71.0419 17.3242 69.7861 16.08 69.7861 13.6913V8.27302C69.7861 5.87182 71.0294 4.61523 73.4414 4.61523H75.8161C78.2094 4.61523 79.4465 5.85938 79.4465 8.27302V11.7628H72.1359V13.5233C72.1359 14.7675 72.6333 15.2527 73.889 15.2527H78.8994V17.3242H73.4414ZM72.1359 9.93394H77.1091V8.41609C77.1091 7.17194 76.5869 6.68052 75.3498 6.68052H73.8765C72.6332 6.68052 72.1235 7.17816 72.1235 8.41609L72.1359 9.93394Z" fill="#DCDDDA"/>
<path d="M85.7558 15.091V15.2528H90.0514L90.2627 13.5234H92.022V17.3243H82.8154V15.2528L89.0319 6.96677V6.7988H84.9974L84.7799 8.55928H83.0268V4.73975H91.9971V6.80503L85.7558 15.091Z" fill="#DCDDDA"/>
<path d="M107.445 17.3244H103.672V8.53451C103.672 7.29036 103.174 6.79894 101.937 6.79894H98.9224V15.4208L100.346 15.6386V17.3244H95.1738V15.6386L96.5974 15.4208V2.12094L95.1738 1.90946V0.223633H98.9037V4.73988H102.348C104.741 4.73988 106.003 5.98403 106.003 8.39767V15.4271L107.426 15.6448L107.445 17.3244Z" fill="#DCDDDA"/>
</svg>
