<svg width="120" height="22" viewBox="0 0 120 22" fill="none" xmlns="http://www.w3.org/2000/svg">
<path d="M8.5974 2.8245V0.995605H14.1922V2.8245L12.6257 3.06708V13.3499C12.6257 16.2239 11.084 17.7666 8.21199 17.7666H5.98023C3.10822 17.7666 1.56656 16.2239 1.56656 13.3499V3.06708L0 2.8245V0.995605H4.05936V13.2318C4.05936 14.8678 4.68105 15.5334 6.3595 15.5334H7.8079C9.44283 15.5334 10.1329 14.8678 10.1329 13.2318V3.06708L8.5974 2.8245Z" fill="#DCDDDA"/>
<path d="M28.8885 17.6234H25.115V8.83357C25.115 7.58942 24.6177 7.098 23.3868 7.098H20.3719V15.7199L21.7955 15.9376V17.6234H16.6172V15.9376L18.0469 15.7199V6.93625L16.6172 6.71854V5.03271H23.8096C26.234 5.03271 27.4649 6.27686 27.4649 8.6905V15.7199L28.8885 15.9376V17.6234Z" fill="#DCDDDA"/>
<path d="M35.5394 5.03258V15.7198L36.963 15.9375V17.6233H31.8096V15.9375L33.2332 15.7198V6.93612L31.8096 6.71841V5.03258H35.5394ZM34.3521 0C34.6983 0 35.0304 0.137656 35.2752 0.382644C35.52 0.627632 35.6575 0.959908 35.6575 1.30637C35.6575 1.65284 35.52 1.98512 35.2752 2.2301C35.0304 2.47509 34.6983 2.61271 34.3521 2.61271C34.0059 2.61271 33.6738 2.47509 33.429 2.2301C33.1842 1.98512 33.0466 1.65284 33.0466 1.30637C33.0466 0.959908 33.1842 0.627632 33.429 0.382644C33.6738 0.137656 34.0059 0 34.3521 0Z" fill="#DCDDDA"/>
<path d="M38.8594 5.03271H42.1106L44.7029 14.3202H44.8894L46.9781 6.93625L45.6229 6.71854V5.03271H50.6831V6.71854L49.303 6.93625L46.1948 17.6234H43.3477L40.2395 6.93625L38.8843 6.71854L38.8594 5.03271Z" fill="#DCDDDA"/>
<path d="M57.2539 17.6235C54.8544 17.6235 53.5986 16.3794 53.5986 13.9906V8.57234C53.5986 6.17736 54.8419 4.91455 57.2539 4.91455H59.6223C62.0219 4.91455 63.2527 6.1587 63.2527 8.57234V12.0622H55.9484V13.8226C55.9484 15.0668 56.4458 15.5582 57.7015 15.5582H62.7119V17.6235H57.2539ZM55.9484 10.2333H60.9216V8.7154C60.9216 7.47126 60.3994 6.97983 59.1686 6.97983H57.6953C56.452 6.97983 55.9422 7.4837 55.9422 8.7154L55.9484 10.2333Z" fill="#DCDDDA"/>
<path d="M67.6599 8.6905C67.6599 6.29552 68.9032 5.03271 71.3152 5.03271H74.9953V8.99531H73.261L73.0247 7.12909H71.7441C70.5008 7.12909 69.9849 7.63296 69.9849 8.86466V15.751L71.4084 15.9688V17.6545H66.2363V15.9688L67.6599 15.751V8.6905Z" fill="#DCDDDA"/>
<path d="M84.9422 8.69062L84.7246 6.93637H82.3313C81.088 6.93637 80.572 7.45893 80.572 8.6222C80.572 9.78548 81.0694 10.3329 82.3313 10.3329H83.6119C85.9617 10.3329 87.1926 11.577 87.1926 13.8911V14.084C87.1926 16.3856 85.9493 17.6236 83.6119 17.6236H78.3901V13.972H80.1245L80.3607 15.7263H83.1146C84.3579 15.7263 84.8428 15.2037 84.8428 13.972C84.8428 12.7403 84.3206 12.2364 83.1146 12.2364H81.8092C79.478 12.2364 78.2471 10.9923 78.2471 8.72172V8.55375C78.2471 6.27696 79.4904 5.03906 81.8092 5.03906H86.6953V8.69685L84.9422 8.69062Z" fill="#DCDDDA"/>
<path d="M94.0425 5.03258V15.7198L95.4661 15.9375V17.6233H90.2939V15.9375L91.7175 15.7198V6.93612L90.2939 6.71841V5.03258H94.0425ZM92.8551 0C93.2013 0 93.5334 0.137656 93.7783 0.382644C94.0231 0.627632 94.1606 0.959908 94.1606 1.30637C94.1606 1.65284 94.0231 1.98512 93.7783 2.2301C93.5334 2.47509 93.2013 2.61271 92.8551 2.61271C92.5089 2.61271 92.1769 2.47509 91.9321 2.2301C91.6872 1.98512 91.5497 1.65284 91.5497 1.30637C91.5497 0.959908 91.6872 0.627632 91.9321 0.382644C92.1769 0.137656 92.5089 0 92.8551 0Z" fill="#DCDDDA"/>
<path d="M97.5117 5.17579H98.6991C99.1218 5.17579 99.3207 4.98917 99.3207 4.55372V2.6875H101.503V5.05759H104.281V7.1291H101.503V13.9719C101.503 15.216 102.025 15.7075 103.287 15.7075H104.872V17.7727H102.833C100.44 17.7727 99.1778 16.5286 99.1778 14.1399V7.1291H97.5428L97.5117 5.17579Z" fill="#DCDDDA"/>
<path d="M118.468 18.4758C118.468 21.0636 117.442 22.1336 114.595 22.1336H110.019V20.0683H114.371C115.614 20.0683 116.105 19.5706 116.105 18.3141V16.4478H112.686C110.262 16.4478 109.031 15.2037 109.031 12.815V6.94883L107.607 6.73108V5.04529H111.337V12.647C111.337 13.8911 111.859 14.4075 113.097 14.4075H116.087V6.9426L114.682 6.72485V5.03906H119.86V6.72485L118.436 6.9426L118.468 18.4758Z" fill="#DCDDDA"/>
</svg>
