<svg width="61" height="24" viewBox="0 0 61 24" fill="none" xmlns="http://www.w3.org/2000/svg">
<path d="M3.696 14.68L3.96 16.768H7.608C8.44 16.768 9.032 16.592 9.384 16.24C9.752 15.872 9.936 15.272 9.936 14.44V13.984C9.936 13.152 9.752 12.552 9.384 12.184C9.032 11.816 8.44 11.632 7.608 11.632H6.024C3.048 11.632 1.56 10.088 1.56 7V6.736C1.56 5.248 1.936 4.12 2.688 3.352C3.44 2.584 4.552 2.2 6.024 2.2H11.904V6.52H9.936L9.648 4.432H6.432C5.6 4.432 5 4.616 4.632 4.984C4.264 5.336 4.08 5.928 4.08 6.76V7.096C4.08 7.928 4.264 8.528 4.632 8.896C5 9.248 5.6 9.424 6.432 9.424H8.016C10.976 9.424 12.456 10.976 12.456 14.08V14.416C12.456 16.048 12.04 17.224 11.208 17.944C10.376 18.648 9.12 19 7.44 19H1.752V14.68H3.696Z" fill="#DCDDDA"/>
<path d="M16 6.48829H17.1874C17.6101 6.48829 17.809 6.30167 17.809 5.86622V4H19.991V6.37009H22.7697V8.4416H19.991V15.2844C19.991 16.5285 20.5132 17.02 21.7751 17.02H23.3603V19.0852H21.3213C18.928 19.0852 17.666 17.8411 17.666 15.4524V8.4416H16.0311L16 6.48829Z" fill="#DCDDDA"/>
<path d="M28.232 8.368V6.28H32.696C35.16 6.28 36.392 7.512 36.392 9.976V17.08L37.832 17.296V19H30.68C29.512 19 28.616 18.696 27.992 18.088C27.384 17.48 27.08 16.584 27.08 15.4V15.16C27.08 13.976 27.384 13.08 27.992 12.472C28.616 11.864 29.512 11.56 30.68 11.56H34.04V10.12C34.04 9.496 33.896 9.048 33.608 8.776C33.336 8.504 32.88 8.368 32.24 8.368H28.232ZM34.04 13.432H31.208C30.584 13.432 30.128 13.568 29.84 13.84C29.568 14.112 29.432 14.552 29.432 15.16V15.4C29.432 15.992 29.576 16.424 29.864 16.696C30.152 16.952 30.6 17.08 31.208 17.08H34.04V13.432Z" fill="#DCDDDA"/>
<path d="M41 6.48829H42.1874C42.6101 6.48829 42.809 6.30167 42.809 5.86622V4H44.991V6.37009H47.7697V8.4416H44.991V15.2844C44.991 16.5285 45.5132 17.02 46.7751 17.02H48.3603V19.0852H46.3213C43.928 19.0852 42.666 17.8411 42.666 15.4524V8.4416H41.0311L41 6.48829Z" fill="#DCDDDA"/>
<path d="M54.6553 18.7089C52.2557 18.7089 51 17.4648 51 15.076V9.65779C51 7.25659 52.2433 6 54.6553 6H57.0299C59.4233 6 60.6603 7.24415 60.6603 9.65779V13.1476H53.3498V14.9081C53.3498 16.1522 53.8471 16.6375 55.1028 16.6375H60.1133V18.7089H54.6553ZM53.3498 11.3187H58.3229V9.80085C58.3229 8.55671 57.8008 8.06528 56.5637 8.06528H55.0904C53.8471 8.06528 53.3374 8.56293 53.3374 9.80085L53.3498 11.3187Z" fill="#DCDDDA"/>
</svg>
