<svg width="64" height="64" viewBox="0 0 64 64" fill="none" xmlns="http://www.w3.org/2000/svg">
<circle cx="32" cy="32" r="32" fill="black"/>
<path d="M32.4205 43.3182C30.7841 43.3182 29.3295 43.0379 28.0568 42.4773C26.7917 41.9167 25.7917 41.1364 25.0568 40.1364C24.322 39.1364 23.9318 37.9811 23.8864 36.6705H28.1591C28.197 37.2992 28.4053 37.8485 28.7841 38.3182C29.1629 38.7803 29.6667 39.1402 30.2955 39.3977C30.9242 39.6553 31.6288 39.7841 32.4091 39.7841C33.2424 39.7841 33.9811 39.6402 34.625 39.3523C35.2689 39.0568 35.7727 38.6477 36.1364 38.125C36.5 37.6023 36.678 37 36.6705 36.3182C36.678 35.6136 36.4962 34.9924 36.125 34.4545C35.7538 33.9167 35.2159 33.4962 34.5114 33.1932C33.8144 32.8902 32.9735 32.7386 31.9886 32.7386H29.9318V29.4886H31.9886C32.7992 29.4886 33.5076 29.3485 34.1136 29.0682C34.7273 28.7879 35.2083 28.3939 35.5568 27.8864C35.9053 27.3712 36.0758 26.7765 36.0682 26.1023C36.0758 25.4432 35.928 24.8712 35.625 24.3864C35.3295 23.8939 34.9091 23.5114 34.3636 23.2386C33.8258 22.9659 33.1932 22.8295 32.4659 22.8295C31.7538 22.8295 31.0947 22.9583 30.4886 23.2159C29.8826 23.4735 29.3939 23.8409 29.0227 24.3182C28.6515 24.7879 28.4545 25.3485 28.4318 26H24.375C24.4053 24.697 24.7803 23.553 25.5 22.5682C26.2273 21.5758 27.197 20.803 28.4091 20.25C29.6212 19.6894 30.9811 19.4091 32.4886 19.4091C34.0417 19.4091 35.3902 19.7008 36.5341 20.2841C37.6856 20.8598 38.5758 21.6364 39.2045 22.6136C39.8333 23.5909 40.1477 24.6705 40.1477 25.8523C40.1553 27.1629 39.7689 28.2614 38.9886 29.1477C38.2159 30.0341 37.2008 30.6136 35.9432 30.8864V31.0682C37.5795 31.2955 38.8333 31.9015 39.7045 32.8864C40.5833 33.8636 41.0189 35.0795 41.0114 36.5341C41.0114 37.8371 40.6402 39.0038 39.8977 40.0341C39.1629 41.0568 38.1477 41.8598 36.8523 42.4432C35.5644 43.0265 34.0871 43.3182 32.4205 43.3182Z" fill="#F8A4A4"/>
</svg>
