<svg width="64" height="64" viewBox="0 0 64 64" fill="none" xmlns="http://www.w3.org/2000/svg">
<circle cx="32" cy="32" r="32" fill="black" fill-opacity="0.8"/>
<path d="M24.0682 43V39.9545L32.1477 32.0341C32.9205 31.2538 33.5644 30.5606 34.0795 29.9545C34.5947 29.3485 34.9811 28.7614 35.2386 28.1932C35.4962 27.625 35.625 27.0189 35.625 26.375C35.625 25.6402 35.4583 25.0114 35.125 24.4886C34.7917 23.9583 34.3333 23.5492 33.75 23.2614C33.1667 22.9735 32.5038 22.8295 31.7614 22.8295C30.9962 22.8295 30.3258 22.9886 29.75 23.3068C29.1742 23.6174 28.7273 24.0606 28.4091 24.6364C28.0985 25.2121 27.9432 25.8977 27.9432 26.6932H23.9318C23.9318 25.2159 24.2689 23.9318 24.9432 22.8409C25.6174 21.75 26.5455 20.9053 27.7273 20.3068C28.9167 19.7083 30.2803 19.4091 31.8182 19.4091C33.3788 19.4091 34.75 19.7008 35.9318 20.2841C37.1136 20.8674 38.0303 21.6667 38.6818 22.6818C39.3409 23.697 39.6705 24.8561 39.6705 26.1591C39.6705 27.0303 39.5038 27.8864 39.1705 28.7273C38.8371 29.5682 38.25 30.5 37.4091 31.5227C36.5758 32.5455 35.4053 33.7841 33.8977 35.2386L29.8864 39.3182V39.4773H40.0227V43H24.0682Z" fill="#F3E7BC"/>
</svg>
