<svg width="58" height="81" viewBox="0 0 58 81" fill="none" xmlns="http://www.w3.org/2000/svg">
<path d="M28.9251 6.00905L28.1667 5.38698C25.3444 3.15996 21.9502 2.43214 18.3634 2.43214H0V-0.0561523H18.3634C22.1927 -0.0561523 25.8231 0.653005 28.9313 2.85514C32.0396 0.653005 35.6637 -0.0561523 39.4993 -0.0561523H57.8068V2.43214H39.4993C35.9062 2.43214 32.5183 3.15996 29.696 5.38698L28.9251 6.00905Z" fill="#DCDDDA"/>
<path d="M29.13 62.3314L28.3902 61.7716C27.9268 61.4152 27.3584 61.2227 26.774 61.2241C26.0634 61.2241 25.3819 61.5066 24.8794 62.0094C24.377 62.5122 24.0947 63.1942 24.0947 63.9053C24.0947 64.6163 24.377 65.2983 24.8794 65.8011C25.3819 66.3039 26.0634 66.5864 26.774 66.5864C27.1791 66.5837 27.5784 66.4902 27.9427 66.3127V65.0685H30.2863V66.2691C30.647 66.4487 31.0436 66.5443 31.4465 66.5489C31.8494 66.5534 32.2481 66.4668 32.6128 66.2955C32.9775 66.1242 33.2987 65.8725 33.5526 65.5595C33.8064 65.2464 33.9862 64.8799 34.0786 64.4875C34.171 64.0951 34.1735 63.6868 34.0861 63.2933C33.9986 62.8997 33.8234 62.5311 33.5735 62.2149C33.3235 61.8987 33.0054 61.643 32.6429 61.4672C32.2803 61.2913 31.8828 61.1997 31.4799 61.1992C30.8973 61.1978 30.3308 61.3904 29.8698 61.7467L29.13 62.3314Z" fill="#DCDDDA"/>
<path d="M14.7644 48.1795C14.6392 47.9785 14.4752 47.8046 14.282 47.6678C14.0887 47.5311 13.8702 47.4344 13.6391 47.3833C13.5025 47.3518 13.3629 47.3351 13.2227 47.3335C12.9024 47.3374 12.5888 47.4263 12.3141 47.5911C12.0394 47.756 11.8134 47.9909 11.6592 48.2718C11.5049 48.5527 11.4279 48.8695 11.4361 49.19C11.4443 49.5104 11.5374 49.8229 11.7058 50.0955L14.0494 53.8279C14.3042 54.233 14.7092 54.5202 15.1756 54.6263C15.6419 54.7325 16.1313 54.6489 16.536 54.394C16.9408 54.1391 17.2278 53.7337 17.3339 53.2671C17.44 52.8005 17.3565 52.3107 17.1017 51.9057L14.7644 48.1795Z" fill="#DCDDDA"/>
<path d="M31.144 20.7896H27.0723V22.4256H28.4026H31.144V20.7896Z" fill="#DCDDDA"/>
<path d="M57.7695 6.0343H39.4558C35.6692 6.02319 31.974 7.19779 28.8878 9.3935C25.8029 7.19552 22.1069 6.02068 18.3199 6.0343H0V48.1486C0 55.2775 4.07795 63.4142 10.9161 69.9211C18.5809 77.2118 28.061 80.7078 28.4589 80.8571L28.8754 81.0064L29.2919 80.8571C35.771 78.337 41.7227 74.628 46.841 69.9211C53.6791 63.4204 57.757 55.2837 57.757 48.1486L57.7695 6.0343ZM48.6748 51.346L46.3312 55.0785C45.673 55.9425 44.7159 56.5292 43.6477 56.7233C42.5794 56.9173 41.4773 56.7048 40.5577 56.1273C39.638 55.5499 38.9672 54.6493 38.6771 53.6024C38.387 52.5555 38.4984 51.4378 38.9896 50.4689L39.5429 49.598L30.2928 43.7941V57.1748H31.8282V58.7798C33.1235 58.8702 34.3363 59.4489 35.2218 60.399C36.1074 61.3492 36.5999 62.6002 36.5999 63.8994C36.5999 65.1987 36.1074 66.4497 35.2218 67.3999C34.3363 68.35 33.1235 68.9287 31.8282 69.0191V69.9771H26.4324V69.0191C25.1371 68.9287 23.9243 68.35 23.0387 67.3999C22.1532 66.4497 21.6607 65.1987 21.6607 63.8994C21.6607 62.6002 22.1532 61.3492 23.0387 60.399C23.9243 59.4489 25.1371 58.8702 26.4324 58.7798V57.1748H27.9429V43.8936L18.7053 49.6913L19.2523 50.5684C19.6561 51.2246 19.8787 51.9762 19.8973 52.7466C19.9159 53.517 19.7298 54.2785 19.3581 54.9534C18.9865 55.6283 18.4425 56.1924 17.7817 56.5882C17.1209 56.9839 16.3671 57.1971 15.5971 57.2059C15.2665 57.2061 14.937 57.1685 14.6149 57.094C14.0598 56.9697 13.5349 56.7363 13.0707 56.4074C12.6065 56.0785 12.2122 55.6606 11.9107 55.178L9.56713 51.4456C9.07599 50.4766 8.96452 49.359 9.25464 48.3121C9.54476 47.2651 10.2155 46.3645 11.1351 45.7871C12.0548 45.2097 13.157 44.9972 14.2252 45.1912C15.2935 45.3853 16.2506 45.972 16.9087 46.836L17.4558 47.7069L26.9918 41.7288L17.605 35.844L15.5474 39.1285L13.2783 37.704L15.3359 34.4194L13.8875 33.5112L11.8423 36.7709L9.57335 35.3463L11.6185 32.0867L10.1763 31.1847L11.4196 29.1878L27.9492 39.5578V29.6046H26.4385V27.1163H27.9492V24.8457H24.6296V18.3389H27.9492V17.0948H30.2928V18.3389H33.6248V24.8831H30.3114V27.1536H31.8469V29.6419H30.3114V39.676L46.841 29.306L48.0843 31.2966L46.6793 32.18L48.681 35.3712L46.412 36.7958L44.4103 33.6045L43.0241 34.4754L44.9823 37.5858L42.7132 39.0166L40.755 35.9062L31.4304 41.7599L40.811 47.6447L41.358 46.7738C42.0162 45.9097 42.9734 45.3231 44.0416 45.129C45.1098 44.9349 46.2119 45.1475 47.1316 45.7249C48.0513 46.3023 48.722 47.2029 49.0122 48.2498C49.3023 49.2968 49.1908 50.4144 48.6997 51.3834L48.6748 51.346Z" fill="#DCDDDA"/>
<path d="M45.9643 47.4891C45.5584 47.2363 45.0689 47.1546 44.603 47.2619C44.1371 47.3691 43.7325 47.6566 43.4777 48.0614L41.1341 51.7939C40.8831 52.2005 40.8024 52.6897 40.9095 53.1555C41.0165 53.6213 41.3027 54.0261 41.706 54.2821C42.1112 54.5355 42.6001 54.6182 43.066 54.5121C43.5318 54.4061 43.9369 54.1199 44.1926 53.7161L46.53 49.9836C46.7852 49.5777 46.8689 49.087 46.7628 48.6193C46.6568 48.1516 46.3696 47.7451 45.9643 47.4891V47.4891Z" fill="#DCDDDA"/>
</svg>
